<?xml version="1.0" encoding="utf-8"?>
<!-- Generator: Adobe Illustrator 23.0.6, SVG Export Plug-In . SVG Version: 6.00 Build 0)  -->
<svg version="1.1" id="Layer_1" xmlns="http://www.w3.org/2000/svg" xmlns:xlink="http://www.w3.org/1999/xlink" x="0px" y="0px"
	 width="864px" height="864px" viewBox="0 0 864 864" enable-background="new 0 0 864 864" xml:space="preserve">
<g>
	<path d="M769.1866,727.2495c0.5111-37.0883,1.0222-74.1768,1.5333-111.265c0.2263-16.4276,0.4525-32.8552,0.679-49.2829
		c-12.2451,10.4498-24.9944,20.3324-38.0004,29.8233c1.3452,43.8893,2.5343,87.7845,3.3171,131.6862
		c0.2158,12.1088,0.3976,24.2192,0.5081,36.3303c3.895-6.1712,9.2823-11.2742,16.4027-14.3598
		c4.7304-2.05,10.0348-3.3553,15.2933-3.555C769.0087,740.1674,769.0977,733.7086,769.1866,727.2495z M756.8349,608.1237
		c0,40.5027,0,81.0056,0,121.5081c0,2.1906-4.0234,5.4927-4.0234,6.5458c0-5.7731,0-11.546,0-17.319c0-40.5028,0-81.0056,0-121.5082
		c0-2.1906,4.0234-5.4928,4.0234-6.5456C756.8349,596.5778,756.8349,602.3508,756.8349,608.1237z"/>
	<path d="M727.9493,828.2639c-0.2234,0.0748-0.3992,0.1365-0.5531,0.1918C727.5807,828.3923,727.764,828.3258,727.9493,828.2639z"/>
	<circle cx="360.7423" cy="449.0277" r="197.5477"/>
	<path d="M728.5258,828.0938c0.0797-0.068,0.1297-0.1065,0.1446-0.1104c0.0432-0.038,0.0766-0.0757,0.1039-0.1138
		c-0.0778,0.0708-0.1648,0.1481-0.2576,0.2296C728.5195,828.0976,728.5231,828.0958,728.5258,828.0938z"/>
	<path d="M721.9474,604.2948c-11.3459,6.2303-25.8721,8.8572-39.0817,7.5138c0.3572,23.8733,0.7144,47.7467,1.0712,71.62
		c0.2861,19.128,0.5723,38.256,0.8585,57.3839c0.0394,2.6202-1.254,5.4268-3.8331,6.4575
		c-19.3751,7.7437-31.1793,31.4509-34.317,51.7816c-0.3476,2.2516-2.2902,5.4631-4.937,5.5183
		c-0.2816,0.0059-0.5763-0.0148-0.8551,0.0178c-6.386,0.7447-13.1609,0.2748-19.5806,0.4088
		c-13.7466,0.2869-27.4929,0.5737-41.2394,0.8605c-41.5172,0.8666-83.0342,1.7333-124.5514,2.5999
		c-48.0137,1.002-96.0272,2.0042-144.0407,3.0062c-39.8568,0.8318-79.7138,1.664-119.5705,2.4959
		c-16.6026,0.3465-33.2053,0.6928-49.8078,1.0394c-1.9118,0.0402-3.6208-1.0801-3.7261-3.1769
		c-1.3836-27.559-14.752-61.9962-46.2167-64.2634c-2.1743-0.1567-2.6406-2.7393-2.6218-4.3939
		c0.003-0.2889,0.0157-0.5792,0.0094-0.8678c-0.0177-0.8486,0.0184-1.702,0.0275-2.5505c0.0028-0.2586,0.0111-1.0279,0.0148-1.3856
		c-0.0075,0.6965,0.014-1.3369,0.0191-1.8177c0.0437-4.2442,0.0858-8.4885,0.1265-12.7325
		c0.1328-13.8159,0.2521-27.6318,0.3611-41.4478c0.3347-42.4077,0.5729-84.8166,0.6987-127.2257
		c0.1509-50.9829,0.1475-101.9666-0.1618-152.9489c-0.2796-46.0826-0.732-92.1732-2.0189-138.2401
		c-0.7702-27.5657-0.5896-55.9392-4.8986-83.2523c-0.5133-3.2532,2.6261-7.2111,6.0412-6.7349
		c7.5742,1.0563,17.3519-0.5013,25.3252-3.6121c20.7202-8.0841,31.4378-27.9072,35.7326-48.8001
		c0.0847-0.412,0.2166-0.8362,0.3698-1.2596c0.0166-0.0523,0.0407-0.1021,0.0584-0.1541c0.0602-0.1575,0.114-0.3153,0.1836-0.4708
		c0.7918-1.907,2.3469-3.5345,4.325-3.6337c23.1546-1.1622,46.315-2.2109,69.4766-3.226
		c73.4594-3.2198,146.9494-6.0321,220.4644-7.6002c33.6752-0.7184,67.3746-1.2484,101.0567-0.7552
		c12.2165,0.1788,24.4439,0.4592,36.64,1.2218c7.4949,0.4686,15.218,0.8752,22.5385,2.6747
		c1.4547,0.3575,2.5856,1.6045,2.6349,3.1521c0.2444,7.6659,3.5952,15.5412,8.1315,22.1733
		c12.8156,18.7355,35.2841,26.2828,56.9037,28.9107c1.4479,0.1759,2.614,1.7463,2.6349,3.1521
		c0.0051,0.3241-0.0093,0.6542,0.0147,0.9772c0.5543,7.4452,0.2255,15.0672,0.3372,22.5282
		c0.2349,15.7078,0.4697,31.4159,0.7048,47.124c0.4578,30.6042,0.9155,61.2082,1.3733,91.8125
		c7.1866-2.6589,14.7946-4.3136,22.4827-5.055c3.6245-0.3493,7.2682-0.3525,10.9019-0.344
		c-0.1072-2.7607-0.2111-5.5213-0.319-8.2821c-2.2138-56.7344-4.514-113.4653-6.8911-170.1927
		c-0.9312-22.2136-1.8713-44.4266-2.8391-66.6385c-1.1016-0.2722-2.2083-0.523-3.3199-0.7522
		c-13.4304-2.77-27.2901-3.7227-40.9452-4.6471c-20.7565-1.4047-41.5615-2.1015-62.3574-2.5982
		c-54.8901-1.3111-109.8185-1.0904-164.717-0.5199c-59.2285,0.6157-118.4502,1.7932-177.6632,3.2671
		c-47.3857,1.1794-94.7665,2.557-142.1415,4.1151c-17.0166,0.5597-34.0331,1.1399-51.0478,1.7685
		c-0.1117,0.8453-0.231,1.6895-0.3369,2.5357c-2.4094,19.2764-3.5546,37.7448-4.5962,58.0289
		c-1.3758,26.7849-2.1435,53.6003-2.6771,80.4141c-1.3084,65.7482-1.1784,131.5249-0.6077,197.2807
		c0.5859,67.5003,1.7373,134.9952,3.2181,202.4812c1.1663,53.1537,2.5424,106.3028,4.1191,159.446
		c0.5977,20.144,1.2147,40.2877,1.9027,60.4287c14.2292,0.4719,28.4588,0.932,42.6893,1.369
		c98.821,3.0363,197.6822,5.2893,296.5524,5.6624c61.6579,0.2325,123.3525-0.1691,184.971-2.554
		c19.5831-0.7578,39.1611-1.7277,58.7108-3.1069c14.3196-1.0105,25.7384-1.9619,39.9172-3.6089
		c13.4609-1.5642,27.3071-3.1494,40.3373-7.0602c0.4049-0.1213,0.8015-0.2616,1.2007-0.3961
		c2.2545-37.1198,0.4944-74.7274-0.2675-111.8564C724.1255,679.6667,723.0932,641.979,721.9474,604.2948z M665.1978,92.8424
		c10.3821,0,18.7988,8.4165,18.7988,18.7988c0,10.3823-8.4166,18.7987-18.7988,18.7987c-10.3824,0-18.7987-8.4165-18.7987-18.7987
		C646.3991,101.2589,654.8154,92.8424,665.1978,92.8424z M106.469,98.6013c11.5103,0,20.8411,9.3308,20.8411,20.8411
		c0,11.5102-9.3309,20.8411-20.8411,20.8411c-11.5102,0-20.841-9.3309-20.841-20.8411
		C85.628,107.9321,94.9588,98.6013,106.469,98.6013z M98.1293,813.5679c-10.3023,0-18.6538-6.764-18.6538-15.1076
		c0-8.3439,8.3515-15.1078,18.6538-15.1078c10.302,0,18.6536,6.7639,18.6536,15.1078
		C116.7829,806.804,108.4313,813.5679,98.1293,813.5679z M689.6202,809.0739c-9.9636,0-18.0402-8.0768-18.0402-18.0404
		s8.0766-18.0404,18.0402-18.0404c9.9633,0,18.0405,8.0768,18.0405,18.0404S699.5836,809.0739,689.6202,809.0739z"/>
	<path d="M762.978,201.9536c0.0432-40.7162,0.0369-81.5735-2.6344-122.2195c-0.4686-7.1302-1.028-14.2637-1.9191-21.3553
		c-0.5369-4.271-1.4155-10.2726-2.4018-13.0928c-0.2382-0.681-0.5263-1.3384-0.7761-2.0129
		c-0.0505-0.1362-0.0793-0.2273-0.1019-0.3031c-0.0273-0.0272-0.0634-0.0679-0.0975-0.1051
		c-0.1674-0.113-0.4067-0.2432-0.7401-0.3463c-1.2611-0.3903,0.3976,0.0846-0.2801-0.1225
		c-0.4373-0.1337-0.8779-0.2672-1.3238-0.3692c-1.1928-0.2729-2.3837-0.5296-3.5894-0.7403
		c-19.9362-3.4828-40.8436-3.2265-61.0038-3.6621c-34.2914-0.7411-68.6024-0.6598-102.8983-0.4008
		c-41.491,0.3133-82.9789,0.9794-124.4619,1.803c-41.7917,0.8297-83.5797,1.8327-125.3643,2.948
		c-34.7922,0.9286-69.5818,1.9366-104.3692,3.0156c-21.0444,0.6528-42.0882,1.3295-63.1306,2.0452
		c-0.5505,0.0188-7.3022,0.6368-9.1481,0.4621c-0.891,0.6055-1.83,1.1639-2.7267,1.7424c-3.97,2.5618-7.9402,5.1236-11.9104,7.6854
		c-2.2489,1.4512-4.4981,2.9025-6.747,4.3536c47.4415-1.5055,94.8886-2.8379,142.3411-3.9556
		c59.5566-1.4026,119.1236-2.4949,178.6956-2.9543c53.2231-0.4103,106.4867-0.4901,159.6909,1.1999
		c19.2045,0.61,38.4261,1.415,57.5721,3.076c11.5151,0.999,23.5157,1.8826,34.6456,5.2166
		c2.0856,0.6247,2.9066,1.8996,3.0029,4.0988c0.0614,1.4057,0.1221,2.8115,0.183,4.2171
		c1.3589,31.3259,2.6759,62.6536,3.9739,93.9818c2.1581,52.0842,4.2402,104.1713,6.2576,156.261
		c3.4387-0.343,6.8383-1.007,10.1724-2.2934c10.2742-3.9642,19.3657-10.5912,27.7208-17.6537
		c0.176-0.1486,0.3474-0.3046,0.5228-0.4541c-0.1163-0.4716-0.1951-0.9902-0.1818-1.6136c0.0347-1.6281,0.0657-3.2561,0.0963-4.8845
		C762.636,264.3365,762.9452,233.1441,762.978,201.9536z M693.9649,49.717c-71.6841-1.6318-143.3956-2.2788-215.0975-2.0327
		c-101.274,0.3477-202.5888,2.4321-303.7182,8.0265c0.35-0.0193,0.8458-2.7178,1.593-2.7591
		c58.0227-3.2098,116.1073-5.2203,174.2039-6.4625c89.2274-1.9076,178.4944-2.0495,267.7335-0.8914
		c38.7198,0.5025,77.4517,1.1365,116.1561,2.3936c-0.2637-0.0085-0.911,2.7813-1.5933,2.7591
		C720.1525,50.3253,707.058,50.015,693.9649,49.717z M734.4766,313.1882c-0.3718-10.5078-0.6428-21.0196-0.9378-31.5298
		c-1.3829-49.3136-2.6756-98.6296-3.9614-147.9458c-0.0566-2.1655,4.0499-5.5354,4.0234-6.5456
		c0.1721,6.5925,0.345,13.1846,0.5182,19.7771c1.3983,53.2303,2.4963,106.4827,4.3815,159.6985
		C738.5766,308.7986,734.4417,312.1935,734.4766,313.1882z M750.5886,301.762c-0.1395,2.2377-3.9521,5.3966-4.0236,6.5455
		c0.9997-16.0401,0.6127-32.2079,0.4029-48.2656c-0.5569-42.6092-1.9764-85.2103-3.4956-127.7945
		c-0.8533-23.9252-1.7575-47.8494-2.7747-71.7682c-0.0916-2.1483,4.0651-5.563,4.0234-6.5456
		c0.364,8.5571,0.7057,17.1152,1.0429,25.6733c1.5639,39.6614,2.9767,79.3304,4.058,119.0082
		C750.7545,232.8334,752.7205,267.5537,750.5886,301.762z"/>
	<path d="M754.9738,42.7859c0.0293,0.0341,0.0477,0.0511,0.0735,0.0791c0.002,0.0016,0.0043,0.0031,0.0065,0.0046
		C755.0261,42.8402,755.0099,42.8279,754.9738,42.7859z"/>
	<path d="M755.1299,42.9208c-0.0215-0.0161-0.0508-0.034-0.0761-0.0513c0.0306,0.0323,0.0665,0.0727,0.0883,0.0918
		C755.1383,42.9484,755.133,42.9323,755.1299,42.9208z"/>
	<path d="M755.2361,43.0096c-0.0091,0.0137-0.0384,0.0014-0.094-0.0483c0.0005,0.0021,0.0023,0.0066,0.0027,0.0088
		C755.3286,43.1524,755.3572,43.1232,755.2361,43.0096z"/>
	<path d="M122.5738,60.588c5.8862-3.7982,11.7723-7.5964,17.6589-11.3946c4.1184-2.6576,8.2367-5.3151,12.3553-7.9727
		c1.9235-1.2412,4.3009-3.3111,6.5859-3.823c0.6904-0.1548,1.5428-0.054,2.2445-0.0783c5.795-0.2012,11.5899-0.3968,17.3845-0.5904
		c25.2883-0.8446,50.578-1.6419,75.8688-2.4032c37.6278-1.1328,75.2576-2.1831,112.8902-3.1327
		c42.7763-1.0795,85.5558-2.0328,128.3392-2.7734c40.79-0.7061,81.5845-1.2369,122.3808-1.3309
		c31.7097-0.0729,63.4504-0.0194,95.1413,1.1983c10.0894,0.3878,20.1991,0.8524,30.2455,1.8897
		c5.0881,0.5254,11.528,0.7247,16.1558,3.2203c5.8636,3.1619,6.2136,13.9754,6.974,19.6677
		c2.1152,15.837,2.7582,31.8991,3.3619,47.8505c1.619,42.8056,1.6071,85.6816,1.3147,128.5111
		c-0.1481,21.6342-0.3906,43.2707-0.8228,64.902c7.0913-6.7665,13.7458-14.0821,19.755-21.736
		c0.1812-0.2737,0.3857-0.5313,0.616-0.7727c0.0425-0.0546,0.087-0.1079,0.1292-0.1624c1.1251-1.451,2.5646-2.1027,3.9149-2.1631
		c0.6522-0.204,1.3165-0.3961,1.9896-0.5791c-0.159-53.9028-0.9183-107.8921-4.5537-161.6656
		c-0.7535-11.1466-1.6559-22.2865-2.8694-33.3933c-1.0209-9.3424-1.8445-15.9617-3.5932-25.2329
		c-1.1521-6.1105-2.4695-12.3071-4.7274-18.12c-0.226-0.5823-0.4686-1.1564-0.7105-1.7321
		c-0.0316-0.0756-0.0569-0.1371-0.0771-0.1882c-0.0349-0.0614-0.0746-0.1311-0.1219-0.2164
		c-0.4496-0.8078-0.8644-1.6289-1.3996-2.3864c-0.298-0.4219-0.6205-0.8141-0.9552-1.1975
		c-0.1747-0.1359-0.8175-0.7045-1.2164-0.8868c-0.4476-0.2045-1.0346-0.4056-1.3197-0.5019
		c-0.7889-0.2173-1.5801-0.4217-2.3801-0.5967c-2.4431-0.5342-4.9245-0.8968-7.403-1.2192
		c-7.2703-0.9456-14.6012-1.442-21.918-1.8559c-22.513-1.2733-45.0876-1.535-67.6312-1.6628
		c-64.4141-0.3653-128.8422,0.999-193.2321,2.6162c-66.8635,1.6792-133.7142,3.8465-200.5537,6.2796
		c-40.1281,1.4607-80.2529,3.0117-120.3719,4.7053c-1.7928,0.0757-4.8098,0.7567-6.8882,0.5108
		c-0.5574,0.2137-1.1324,0.3987-1.5647,0.5909c-4.9465,2.2013-9.8927,4.4027-14.8392,6.6039
		c-17.5706,7.8194-35.1411,15.6388-52.7117,23.4584c11.7534-0.3955,23.5122-0.7024,35.2629-1.0495
		C121.6325,61.3264,122.0583,60.9206,122.5738,60.588z"/>
	<path d="M806.6886,277.4236c0.0083,0.088,0.3362,0.1217-0.0455-0.5622c-0.0425-0.0081-0.0632-0.0031-0.1183-0.0191
		c-2.9918-0.8631-6.4861-0.1938-9.6357,0.7027c-9.9302,12.587-21.554,24.1951-34.0331,34.1953
		c-8.3961,6.7281-17.6954,12.9809-27.8642,16.678c-10.7712,3.9158-20.9316,2.6259-32.1274,3.2868
		c-17.9168,1.0576-35.662,7.376-46.9718,21.8865c-11.2027,14.3736-15.7222,35.2038-13.877,53.2271
		c0.3809,3.7249-4.5484,5.7794-7.4561,5.3386c2.4011,0.364,0.159,0.0319-0.4385-0.0039c-1.299-0.078-2.5901-0.167-3.8922-0.1804
		c-4.1285-0.0418-7.356,0.2733-11.4036,1.1313c-31.1022,6.5923-36.6096,40.5214-34.6792,67.6874
		c1.1747,16.5243,5.623,34.6325,18.068,46.4364c7.8911,7.4841,18.3223,11.4317,29.1063,11.8619
		c1.3518,0.0541,3.1329,0.8087,3.3659,2.3553c0.1006,0.6676,0.2083,1.3421,0.3569,2.0003
		c6.2897,27.8184,22.3469,58.939,54.8434,59.6192c9.3043,0.1949,21.0826-1.6615,29.1569-6.0279
		c4.8965-2.6478,9.4294-6.765,13.8826-10.0722c17.3508-12.8865,34.6183-26.257,50.0291-41.451
		c5.7877-5.7066,12.6257-12.1291,16.0117-19.6582c1.0905-2.4249,0.9441-2.5211,1.211-4.8435
		c0.2296-1.9988,0.3881-4.0065,0.544-6.0118c1.1673-15.0518,1.7421-30.1578,2.3558-45.2401
		c1.7697-43.4959,2.9827-87.024,3.7104-130.5494c0.273-16.3415,0.5369-32.6947,0.337-49.0385
		C807.0731,285.934,807.0955,281.6474,806.6886,277.4236z M675.4824,370.4504c7.517,0,13.6103,6.0934,13.6103,13.6103
		c0,7.5167-6.0933,13.6103-13.6103,13.6103c-7.5167,0-13.6106-6.0936-13.6106-13.6103
		C661.8718,376.5438,667.9657,370.4504,675.4824,370.4504z M624.5178,496.0212c-12.0846,0-21.8813-8.9297-21.8813-19.9449
		c0-11.0152,9.7968-19.9449,21.8813-19.9449c12.0845,0,21.8813,8.9297,21.8813,19.9449
		C646.3991,487.0915,636.6024,496.0212,624.5178,496.0212z M660.3322,492.0694c10.548-13.0403,10.6981-28.9097,9.8801-37.0975
		c-5.2648-2.2322-8.9583-7.4479-8.9583-13.5269c0-8.1112,6.5751-14.6866,14.6866-14.6866c8.111,0,14.6864,6.5754,14.6864,14.6866
		c0,7.8812-6.213,14.2938-14.0054,14.652c1.1466,6.4579,4.0911,15.5144,10.5366,28.0818
		c17.7884,34.6848-7.4808,33.0609-13.7953,32.5001C667.0484,516.1176,645.411,510.5163,660.3322,492.0694z M685.4156,576.216
		c-8.8622,0-16.046-7.8941-16.046-17.6314c0-9.7379,7.1838-17.6317,16.046-17.6317c8.8619,0,16.0458,7.8938,16.0458,17.6317
		C701.4614,568.3219,694.2776,576.216,685.4156,576.216z M723.8887,562.7991c-0.2344-8.4494-0.4687-16.8991-0.7032-25.3486
		c-1.026-36.9878-2.052-73.9757-3.078-110.9636c-0.6443-23.2249-1.2889-46.4498-1.9332-69.6746
		c-0.1052-3.7979,6.4111-7.5048,6.5476-2.5878c0.2343,8.4495,0.4686,16.899,0.7032,25.3485
		c1.026,36.988,2.052,73.9758,3.078,110.9636c0.6443,23.2249,1.2889,46.4498,1.9332,69.6749
		C730.5414,564.0092,724.0252,567.716,723.8887,562.7991z"/>
	<path d="M779.5486,559.6154c-0.0483,3.5239-0.0968,7.0478-0.1456,10.5717c-0.5108,37.0886-1.0222,74.1768-1.533,111.2654
		c-0.321,23.288-0.6418,46.576-0.9628,69.864c-0.0381,2.7911-1.7603,6.2332-5.0198,5.8932
		c-3.9726-0.4143-9.866,0.4091-14.4631,2.1014c-0.7733,0.2847-1.5172,0.5984-2.2404,0.9332
		c7.6075,2.3412,16.3496,4.1768,23.9417,1.8286c2.3702-0.733,3.8488-1.5781,5.311-2.9512
		c-0.1886,0.1462,0.8541-1.0002,0.9057-1.0659c0.0816-0.1049,0.1481-0.1884,0.208-0.2629c0.0604-0.1067,0.1355-0.2358,0.2467-0.4203
		c0.9691-1.6052,0.5131-0.6055,1.3703-2.9006c1.8311-4.9005,2.44-12.1791,2.5062-18.403
		c0.0758-7.2015-0.4095-14.3905-0.7609-21.5792c-0.2611-5.3488-0.2877-10.6561-0.1314-16.0015
		c0.3971-13.597,0.873-27.1917,1.3114-40.7872c1.1938-37.0664,2.2861-74.1361,3.2481-111.2094
		C788.9568,551.076,784.2914,555.4037,779.5486,559.6154z"/>
</g>
</svg>
